<svg width="128" height="54" viewBox="0 0 128 54" fill="none" xmlns="http://www.w3.org/2000/svg">
<g clip-path="url(#clip0_1_5)">
<path d="M9.31141 36.3443C7.55133 35.5211 6.10352 34.854 6.10352 33.509C6.10352 32.48 6.92678 31.7348 8.55202 31.7348C9.14818 31.7348 9.63788 31.8022 10.1453 31.898C10.4079 31.9406 10.6918 31.9796 10.926 31.9796C12.3454 31.9796 13.1439 31.1351 13.6797 29.5276L13.8997 28.8711C13.6761 28.7788 11.3554 27.7568 8.33201 27.7568C3.52017 27.7568 0.979402 30.8441 0.979402 34.0449C0.979402 35.6595 1.48685 36.8305 2.27817 37.7531C3.29661 38.9383 4.75152 39.7119 6.11062 40.3791C8.09071 41.3514 9.87918 42.0682 9.87918 43.5124C9.87918 44.7864 8.55912 45.5174 6.79194 45.5174C4.37182 45.5174 2.25688 44.1334 1.98719 43.9631L0 47.6891C0.351307 47.8913 2.91337 49.5166 7.1255 49.5166C11.6144 49.5166 15.0139 46.9403 15.0139 42.9801C15.0139 39.02 11.8628 37.5792 9.31141 36.3443Z" fill="white"/>
<path d="M26.8698 38.1825L35.0137 28.1968H29.2118L22.7144 36.8127H22.6186V28.1968H17.8352V49.3498H18.119C20.1878 49.3498 22.6505 48.3917 22.6505 44.9389V40.0845H22.7464L29.3644 49.0907H35.4502L26.8627 38.186" fill="white"/>
<path d="M35.287 5.53577C33.6014 5.85514 31.1032 7.38456 31.1139 10.085C31.121 12.5406 33.1259 14.0275 33.133 17.2425C33.1436 19.6661 31.8094 21.2914 30.3687 22.1962C30.9506 22.143 31.5894 22.1111 32.292 22.1111C33.7646 22.104 34.6518 22.253 34.7085 22.2566L42.2634 12.9842C40.1662 9.84726 37.7142 7.4094 35.287 5.53577Z" fill="white"/>
<path d="M41.6318 30.5744C42.5828 29.0946 42.7034 26.7348 42.7815 24.3289C42.8702 22.0898 43.3386 20.4007 46.3407 20.3936C47.0007 20.3936 47.6359 20.4823 48.7857 20.4787C53.1788 20.4574 56.046 18.9458 57.8274 17.9522C54.183 15.6279 48.8637 13.2574 42.2634 12.9877C41.834 14.2049 38.4877 23.5092 38.2322 24.2544C38.2713 24.3005 38.8603 24.9535 39.5878 26.2345C40.6666 27.9946 41.2485 29.485 41.6318 30.5744Z" fill="white"/>
<path d="M25.6773 22.9734C25.294 22.9769 25.1024 22.7214 25.0527 22.2814C25.0066 21.8449 23.1152 4.5599 22.8349 1.94462C22.7923 1.56492 22.7 0.862308 22.7 0.613909C22.6965 0.209373 22.9591 8.23474e-06 23.2678 8.23474e-06C24.162 -0.00354032 29.0377 1.13909 34.2186 4.76927C32.7247 5.188 30.0278 6.73872 30.0384 9.95016C30.0491 12.7926 32.086 14.361 32.0931 17.2105C32.1108 21.8485 26.7773 22.9698 25.6737 22.9734" fill="white"/>
<path d="M42.3271 31.2805C42.4087 31.4934 42.4832 31.6709 42.5578 31.7951C42.6784 31.9938 42.8274 32.0825 43.0155 32.0825C43.1326 32.0825 43.2781 32.0435 43.4378 31.9654C43.8317 31.788 59.3424 24.5631 61.688 23.4879C62.0251 23.3282 62.671 23.0337 62.8803 22.913C63.1039 22.7888 63.2033 22.6043 63.2033 22.4198C63.2033 22.3169 63.1713 22.2104 63.1145 22.1146C62.82 21.6426 61.3225 20.0493 58.8101 18.3105C56.8159 19.4071 53.7038 21.1033 49.08 21.121C47.9445 21.121 47.689 21.0465 46.9118 21.05C44.6514 21.0607 44.0872 22.0259 44.0056 24.0095C43.9914 24.3821 43.9843 24.886 43.963 25.4325C43.892 27.2032 43.6862 29.6482 42.3306 31.2805" fill="white"/>
<path d="M49.9849 40.1093C50.3397 39.6977 50.7691 39.3535 51.2694 39.0731C51.7698 38.7928 52.3589 38.6544 53.0295 38.6544C53.8209 38.6544 54.4773 38.8247 55.0061 39.169C55.5348 39.5132 55.9358 39.9142 56.2126 40.3719C56.4858 40.8297 56.6881 41.3478 56.8194 41.9191C56.9507 42.494 57.0146 43.1327 57.0146 43.8389C57.0146 44.5983 56.9223 45.308 56.7413 45.9573C56.5603 46.6103 56.2907 47.1745 55.9323 47.6536C55.5738 48.1362 55.1338 48.5123 54.6051 48.782C54.0764 49.0552 53.466 49.1901 52.7705 49.1901C52.2027 49.1901 51.6953 49.1085 51.2517 48.9488C50.8081 48.7891 50.4001 48.5371 50.0239 48.1929C50.0381 48.5691 50.0452 48.9097 50.0487 49.2114C50.0487 49.513 50.0523 49.8182 50.0523 50.1269V52.8345H47.437V38.878H49.9813V40.1022L49.9849 40.1093ZM50.0558 46.3761C50.6662 46.9722 51.383 47.2739 52.2063 47.2739C52.8769 47.2739 53.4021 46.99 53.7818 46.4222C54.158 45.8544 54.346 44.9957 54.346 43.8424C54.346 42.6891 54.1722 41.9226 53.8209 41.3833C53.4696 40.8403 52.9692 40.5706 52.3163 40.5706C51.8975 40.5706 51.5001 40.6984 51.124 40.9468C50.7443 41.1987 50.3894 41.5607 50.0523 42.0326V46.3761H50.0558Z" fill="white"/>
<path d="M61.5533 37.196H58.938V34.971H61.5533V37.196ZM61.5533 48.9594H58.938V38.8851H61.5533V48.9594Z" fill="white"/>
<path d="M68.5334 49.1936C67.7456 49.1936 67.0394 49.0765 66.4184 48.8423C65.7975 48.6081 65.2687 48.2675 64.8358 47.8133C64.4064 47.3626 64.0729 46.809 63.8386 46.1561C63.6044 45.5031 63.4873 44.7615 63.4873 43.924C63.4873 43.0866 63.6044 42.3414 63.8386 41.6849C64.0729 41.032 64.4064 40.4784 64.8358 40.0277C65.2687 39.5771 65.7939 39.2364 66.4184 39.0022C67.0394 38.768 67.7456 38.6509 68.5334 38.6509C69.1295 38.6509 69.6796 38.7254 70.1835 38.878C70.6874 39.027 71.1274 39.2541 71.5035 39.5522C71.8832 39.8503 72.1884 40.2158 72.4191 40.6523C72.6533 41.0887 72.7988 41.5891 72.8626 42.1604H70.4319C70.3644 41.6742 70.1622 41.2839 69.8251 40.9965C69.488 40.709 69.055 40.5636 68.5298 40.5636C68.1714 40.5636 67.8485 40.631 67.5575 40.7658C67.2666 40.9007 67.0146 41.1029 66.8052 41.3762C66.5959 41.6494 66.4326 41.9972 66.3191 42.423C66.2055 42.8453 66.1488 43.3456 66.1488 43.9205C66.1488 44.4954 66.2055 44.9851 66.3191 45.4038C66.4326 45.8225 66.5923 46.1703 66.8052 46.4435C67.0146 46.7203 67.263 46.9226 67.5575 47.061C67.8485 47.1994 68.175 47.2668 68.5298 47.2668C68.7818 47.2668 69.0195 47.2277 69.2467 47.1568C69.4702 47.0858 69.6654 46.9793 69.8322 46.8374C69.9989 46.699 70.1373 46.5287 70.2367 46.3335C70.3396 46.1383 70.4035 45.9183 70.4319 45.6699H72.8626C72.7846 46.227 72.632 46.7203 72.3978 47.1568C72.1636 47.5932 71.8584 47.9623 71.4858 48.2639C71.1132 48.5655 70.6732 48.7962 70.1728 48.9523C69.6725 49.112 69.1225 49.1865 68.5263 49.1865L68.5334 49.1936Z" fill="white"/>
<path d="M83.4373 48.2816C83.4373 49.9069 83.0399 51.1063 82.2415 51.8834C81.4466 52.6606 80.2401 53.0474 78.629 53.0474C77.8945 53.0474 77.2557 52.9693 76.7057 52.8203C76.1557 52.6677 75.7015 52.4548 75.3431 52.1709C74.9847 51.8905 74.7114 51.557 74.5304 51.1737C74.3495 50.7905 74.2572 50.3611 74.2572 49.8891H76.766C76.8086 50.3824 76.9754 50.7514 77.2664 50.9963C77.5574 51.2411 78.0329 51.3618 78.6929 51.3618C79.1471 51.3618 79.5126 51.2908 79.8001 51.1453C80.0839 50.9998 80.304 50.7976 80.4636 50.5385C80.6233 50.2795 80.7298 49.9601 80.7901 49.5875C80.8469 49.2114 80.8753 48.7926 80.8753 48.3349V47.6748C80.0307 48.6365 79.0549 49.1156 77.9406 49.1156C77.2877 49.1156 76.7128 49.002 76.2125 48.7713C75.7121 48.5407 75.2863 48.2071 74.9421 47.7707C74.5943 47.3342 74.3317 46.8019 74.1543 46.1632C73.9769 45.528 73.8882 44.8076 73.8882 43.9985C73.8882 43.2462 73.9804 42.5401 74.1685 41.8907C74.353 41.2378 74.6227 40.6771 74.9776 40.198C75.3289 39.7225 75.7689 39.3464 76.2976 39.0696C76.8264 38.7964 77.4367 38.658 78.1287 38.658C78.6858 38.658 79.1897 38.736 79.6439 38.8957C80.0946 39.0518 80.5204 39.3038 80.9108 39.6445V38.8851H83.4444V48.2816H83.4373ZM80.8327 41.4968C80.2152 40.8794 79.502 40.5706 78.6929 40.5706C78.0329 40.5706 77.5112 40.8474 77.128 41.401C76.7412 41.9546 76.5531 42.8204 76.5531 43.9985C76.5531 45.0418 76.7235 45.8367 77.0606 46.3761C77.4012 46.919 77.9051 47.1887 78.5687 47.1887C78.9874 47.1887 79.3849 47.0645 79.7575 46.8125C80.1301 46.5641 80.492 46.2022 80.8327 45.7267V41.4968Z" fill="white"/>
<path d="M88.5613 48.9594H85.946V35.0349H88.5613V48.9594Z" fill="white"/>
<path d="M95.5377 38.6544C96.2971 38.6544 96.9891 38.768 97.6065 38.9951C98.224 39.2222 98.7492 39.5593 99.1856 40.0029C99.6221 40.45 99.9592 41 100.194 41.6565C100.431 42.313 100.548 43.0688 100.548 43.9276C100.548 44.7863 100.431 45.5315 100.194 46.188C99.9557 46.8409 99.6186 47.391 99.1856 47.8381C98.7492 48.2852 98.224 48.6223 97.6065 48.853C96.9891 49.0836 96.2971 49.1972 95.5377 49.1972C94.7783 49.1972 94.0757 49.0836 93.4512 48.853C92.8302 48.6223 92.3014 48.2852 91.865 47.8381C91.432 47.391 91.0914 46.8409 90.8536 46.188C90.6123 45.5315 90.4917 44.7792 90.4917 43.9276C90.4917 43.0759 90.6123 42.313 90.8536 41.6565C91.0949 41.0036 91.432 40.45 91.865 40.0029C92.3014 39.5593 92.8302 39.2222 93.4512 38.9951C94.0722 38.768 94.7677 38.6544 95.5377 38.6544ZM95.5377 47.2703C95.8855 47.2703 96.2084 47.1993 96.4994 47.0645C96.7904 46.9261 97.0388 46.7203 97.2446 46.4471C97.4504 46.1738 97.6065 45.8261 97.7201 45.4073C97.8265 44.9886 97.8833 44.4953 97.8833 43.924C97.8833 43.3527 97.8265 42.8595 97.7201 42.4372C97.6101 42.0149 97.4504 41.6671 97.2446 41.3904C97.0388 41.1171 96.7904 40.9113 96.4994 40.7729C96.2084 40.6345 95.8855 40.5671 95.5377 40.5671C95.19 40.5671 94.8457 40.6381 94.5548 40.7729C94.2638 40.9113 94.0154 41.1171 93.8096 41.3904C93.6037 41.6671 93.4441 42.0149 93.3305 42.4372C93.217 42.8595 93.1602 43.3563 93.1602 43.924C93.1602 44.4918 93.217 44.9886 93.3305 45.4073C93.4441 45.8261 93.6037 46.1738 93.8096 46.4471C94.0154 46.7238 94.2638 46.9261 94.5548 47.0645C94.8457 47.2029 95.1758 47.2703 95.5377 47.2703Z" fill="white"/>
<path d="M105.091 38.0796C105.091 38.4025 105.083 38.736 105.076 39.0838C105.066 39.4316 105.062 39.7651 105.062 40.0881C105.456 39.6338 105.9 39.2825 106.407 39.0341C106.911 38.7822 107.45 38.658 108.029 38.658C108.682 38.658 109.257 38.7786 109.764 39.0199C110.268 39.2612 110.69 39.6019 111.024 40.049C111.357 40.4961 111.616 41.0391 111.79 41.6743C111.964 42.313 112.053 43.0369 112.053 43.846C112.053 44.655 111.957 45.379 111.765 46.039C111.574 46.699 111.293 47.2597 110.931 47.7245C110.569 48.193 110.122 48.5549 109.594 48.8104C109.065 49.0694 108.472 49.1972 107.812 49.1972C107.241 49.1972 106.734 49.112 106.279 48.9452C105.825 48.7785 105.406 48.523 105.023 48.1788V48.963H102.482V35.0385H105.098V38.0867L105.091 38.0796ZM105.091 46.3725C105.701 46.9687 106.418 47.2703 107.241 47.2703C107.912 47.2703 108.437 46.9864 108.817 46.4187C109.193 45.8509 109.381 44.9922 109.381 43.8389C109.381 42.6856 109.207 41.9191 108.856 41.3797C108.508 40.8368 108.007 40.5671 107.355 40.5671C106.936 40.5671 106.538 40.6949 106.159 40.9433C105.782 41.1952 105.424 41.5572 105.087 42.0291V46.3725H105.091Z" fill="white"/>
<path d="M120.332 48.0332C119.888 48.4271 119.381 48.7181 118.82 48.9097C118.256 49.1014 117.62 49.1972 116.907 49.1972C116.414 49.1972 115.953 49.1333 115.527 49.0091C115.101 48.8814 114.732 48.6968 114.42 48.4484C114.107 48.2 113.859 47.8949 113.678 47.5258C113.497 47.1568 113.405 46.7345 113.405 46.2554C113.405 43.924 115.417 42.7565 119.437 42.7565H120.314C120.314 42.2278 120.296 41.841 120.261 41.5926C120.225 41.4294 120.179 41.2768 120.119 41.1419C120.055 41.0036 119.966 40.8829 119.849 40.7835C119.725 40.6061 119.53 40.4784 119.263 40.3967C118.997 40.3187 118.674 40.2761 118.295 40.2761C117.617 40.2761 117.102 40.4003 116.755 40.6522C116.41 40.9006 116.212 41.2732 116.166 41.7665H113.82C113.958 39.6941 115.481 38.658 118.391 38.658C119.097 38.658 119.721 38.7147 120.261 38.8212C120.8 38.9312 121.283 39.1299 121.716 39.4103C122.12 39.6693 122.422 40.0383 122.62 40.5103C122.819 40.9823 122.918 41.6281 122.918 42.4443V48.9594H120.335V48.0332H120.332ZM120.314 44.3179H119.302C118.22 44.3179 117.408 44.4563 116.875 44.7331C116.339 45.0099 116.07 45.4641 116.07 46.0993C116.07 46.5712 116.233 46.9226 116.556 47.1532C116.879 47.3839 117.308 47.4974 117.844 47.4974C118.089 47.4974 118.334 47.469 118.575 47.4087C118.816 47.3519 119.04 47.2739 119.253 47.1709C119.466 47.0716 119.664 46.9474 119.845 46.8019C120.026 46.6529 120.186 46.4896 120.314 46.3157V44.3179Z" fill="white"/>
<path d="M128 48.9594H125.385V35.0349H128V48.9594Z" fill="white"/>
</g>
<defs>
<clipPath id="clip0_1_5">
<rect width="128" height="54" fill="white"/>
</clipPath>
</defs>
</svg>
